# xmcd
#
# Track frame offsets: 
#        187
#        12160
#        31665
#        44370
#        59410
#        72867
#        86780
#        99550
#        115697
#        134092
#        147047
#        160037
#        174015
#        187282
#        204005
#        220642
#        233200
#        248485
#
# Disc length: 3527 seconds
#
# Revision: 4
# Processed by: cddbd v1.5.2PL0 Copyright (c) Steve Scherf et al.
# Submitted via: ExactAudioCopy v0.95b3
#
DISCID=eb0dc512
DTITLE=Django Reinhardt - The Indispensable Django Reinhardt [disc 1]
DYEAR=1983
DGENRE=Jazz Manouche
TTITLE0=Minor Swing [1949]
TTITLE1=Beyond the Sea (La Mer) [1949]
TTITLE2=The World Is Waiting for the Sunrise [1949]
TTITLE3=Django Castle (Le Manoir de Mes Reves) [1950]
TTITLE4=Dream of You [1950]
TTITLE5=Ménilmontant [1949]
TTITLE6=It's Only a Paper Moon [1949]
TTITLE7=I Saw Stars [1949]
TTITLE8=Nuages [1950]
TTITLE9=Swing Guitars [1949]
TTITLE10=All the Things You Are [1949]
TTITLE11=A Tisket a Tasket [1950]
TTITLE12=September Song [1950]
TTITLE13=Heavy Artillery (Artillerie Lourde) [1949]
TTITLE14=Improvisation on Tchaikowsky's "Pathétique" Andante [1949]
TTITLE15=Djangology [1949]
TTITLE16=Ou Es-Tu Mon Amour? (Where Are You My Love?) [1949]
TTITLE17=Russian Songs Medley [1950]
EXTD=Tracks 1-3,6-8,10,11,14-17 recorded at RAI studios, Rome IT-RM, 1
EXTD=949-01/02.\nDjango Reinhardt: guitar\nStéphane Grappelli: violin\n
EXTD=Gianni Safred: piano\nCarlo Pecori: bass\nAurelio de Carolis: dru
EXTD=ms\n\nTracks 4,5,9,12,13,18 recorded at RAI studios, Rome IT-RM, 
EXTD=1950-04/05.\nDjango Reinhardt: guitar\nAndré Ekyan: alto sax, cla
EXTD=rinet\nRalph [Raph(aël)] Schecroun [AKA, Errol Parker]: piano\nAl
EXTD=phonse "Alf" Masselier: bass\nRoger Paraboschi: drums\n\nAMG/Amaz
EXTD=on title: Jazz Tribute No. 39: The Indispensable Django Reinhardt
EXTD=, 1949-1950\nCDUniverse title: Indispensable Django Reinhardt (19
EXTD=49-1950]\nJazz Heritage 2CD title (front and spine): The Indispensa
EXTD=ble Django Reinhardt\nCompilation originally produced by Jean-Pau
EXTD=l Guiter in 1983.\n(p) © 1992 BMG Music (RCA/Novus]\n2CD: RCA 664
EXTD=68 (1994-08-30), UPC 078636646824 - Jazz Heritage 524347M (1996), 
EXTD=UPC 717794434729.
EXTT0=(Django Reinhardt/Stéphane Grappelli)
EXTT1=(Charles Trenet/Albert Lasney)
EXTT2=(Ernest Seitz/Eugene Lockhart)
EXTT3=(Django Reinhardt)
EXTT4=(Olivier/Jimmie Lunceford/Moran)
EXTT5=(Charles Trenet)
EXTT6=(Harold Arlen/Billy Rose/E.Y. "Yip" Harburg)
EXTT7=(Maurice Sigler/Al Goodhart/Al Hoffman)
EXTT8=(Django Reinhardt)
EXTT9=(Django Reinhardt/Stéphane Grappelli)
EXTT10=(Jerome Kern/Oscar Hammerstein II)
EXTT11=(Ella Fitzgerald/Feldman)
EXTT12=(Maxwell Anderson/Kurt Weill)
EXTT13=(Django Reinhardt)
EXTT14=(Pyotr Il'yich Tchaikovsky)
EXTT15=(Django Reinhardt/Stéphane Grappelli)
EXTT16=(Emil Stern)
EXTT17=(trad.)
PLAYORDER=
